<?xml version="1.0" encoding="UTF-8" standalone="no"?><!DOCTYPE svg PUBLIC "-//W3C//DTD SVG 1.1//EN" "http://www.w3.org/Graphics/SVG/1.1/DTD/svg11.dtd"><svg width="330px" height="217px" version="1.1" xmlns="http://www.w3.org/2000/svg" xmlns:xlink="http://www.w3.org/1999/xlink" xml:space="preserve" xmlns:serif="http://www.serif.com/" style="fill-rule:evenodd;clip-rule:evenodd;"><g><g><path d="M48,10C48,4.481 43.519,0 38,0L10,0C4.481,0 0,4.481 0,10L0,38C0,43.519 4.481,48 10,48L38,48C43.519,48 48,43.519 48,38L48,10Z" style="fill:rgb(36,41,56);"/><g transform="matrix(0.905661,0,0,0.905661,2.27298,2.26413)"><path d="M20.068,9.153L11.398,9.153C9.671,9.153 8.252,10.628 8.252,12.453C8.19,14.215 9.547,15.688 11.244,15.752L20.16,15.752L20.068,9.153Z" style="fill:rgb(7,48,66);fill-rule:nonzero;"/></g><g transform="matrix(0.905661,0,0,0.905661,2.27298,2.26413)"><path d="M39.75,38.494L11.398,38.494C9.64,38.494 8.252,37.021 8.252,35.195L8.252,12.421C8.252,14.247 9.671,15.72 11.398,15.752L35.123,15.752C35.123,15.752 39.75,15.336 39.75,18.956L39.75,38.494Z" style="fill:rgb(66,133,244);fill-rule:nonzero;"/></g><g transform="matrix(0.905661,0,0,0.905661,2.27298,2.26413)"><path d="M26.515,26.835C27.78,25.842 28.027,23.984 27.071,22.703C26.546,21.998 25.744,21.55 24.88,21.518L24.972,21.518C25.127,21.486 25.312,21.486 25.467,21.518L25.467,19.692C25.467,19.468 25.374,19.276 25.189,19.18C24.911,19.019 24.572,19.116 24.418,19.404C24.356,19.5 24.325,19.596 24.356,19.724L24.356,21.582C22.813,21.838 21.734,23.344 21.98,24.977L21.98,25.009C22.104,25.778 22.505,26.483 23.122,26.931L17.908,38.526L21.302,38.526L23.708,33.209C23.986,32.568 24.726,32.28 25.374,32.601C25.621,32.729 25.837,32.953 25.96,33.209L28.459,38.526L31.914,38.526L26.515,26.835ZM24.757,26.323C23.769,26.323 22.998,25.49 22.998,24.465C22.998,23.44 23.8,22.639 24.787,22.671C25.25,22.671 25.652,22.863 25.991,23.184C26.7,23.888 26.7,25.041 26.021,25.778C25.713,26.099 25.25,26.323 24.757,26.323Z" style="fill:rgb(56,112,178);fill-rule:nonzero;"/></g><g transform="matrix(0.905661,0,0,0.905661,2.27298,2.26413)"><rect x="18.186" y="10.756" width="12.155" height="2.306" style="fill:white;fill-rule:nonzero;"/></g><g transform="matrix(0.905661,0,0,0.905661,2.27298,2.26413)"><path d="M23.831,22.639C24.787,22.639 25.59,23.472 25.559,24.497C25.559,25.49 24.757,26.323 23.769,26.291C22.813,26.291 22.042,25.458 22.042,24.465C22.042,23.984 22.227,23.536 22.567,23.184C22.906,22.831 23.368,22.639 23.831,22.639ZM24.51,21.582L24.51,19.66C24.51,19.436 24.418,19.244 24.233,19.147C23.955,18.987 23.615,19.083 23.461,19.372C23.399,19.468 23.368,19.564 23.399,19.692L23.399,21.55C21.856,21.806 20.777,23.312 21.024,24.945L21.024,24.977C21.148,25.746 21.548,26.451 22.165,26.899L15.594,41.537C15.348,42.05 15.378,42.69 15.718,43.171C16.211,43.907 17.168,44.1 17.877,43.587C18.124,43.427 18.309,43.171 18.432,42.915L22.813,33.177C23.091,32.536 23.831,32.248 24.479,32.568C24.726,32.697 24.942,32.921 25.065,33.177L29.539,42.819C29.909,43.619 30.834,43.939 31.606,43.555C32.377,43.171 32.686,42.21 32.315,41.409L25.559,26.835C26.793,25.81 27.009,23.92 26.021,22.639C25.652,22.126 25.127,21.774 24.51,21.582Z" style="fill:rgb(7,48,66);fill-rule:nonzero;"/></g><g transform="matrix(0.905661,0,0,0.905661,2.27298,2.26413)"><path d="M28.552,12.806C28.088,12.806 27.718,12.453 27.718,11.973C27.718,11.748 27.811,11.492 27.965,11.332C28.304,11.012 28.798,11.012 29.138,11.332C29.292,11.492 29.384,11.716 29.384,11.941C29.353,12.421 29.014,12.773 28.552,12.806ZM19.42,12.773C18.956,12.773 18.587,12.389 18.587,11.941C18.587,11.716 18.679,11.492 18.833,11.332C19.111,10.98 19.636,10.916 19.975,11.204L20.006,11.204C20.345,11.524 20.376,12.069 20.068,12.421L19.975,12.549C19.821,12.709 19.605,12.806 19.389,12.806L19.42,12.773ZM28.798,7.616L30.433,4.67C30.526,4.509 30.464,4.317 30.341,4.189C30.187,4.125 30.033,4.157 29.94,4.285L28.243,7.328C25.528,6.079 22.443,6.079 19.759,7.328L18.093,4.317C18.032,4.221 17.908,4.125 17.784,4.125C17.661,4.125 17.537,4.189 17.475,4.317C17.414,4.413 17.414,4.573 17.475,4.67L19.142,7.616C16.241,9.249 14.36,12.325 14.083,15.72L33.888,15.72C33.642,12.293 31.729,9.249 28.829,7.616" style="fill:rgb(61,220,132);fill-rule:nonzero;"/></g><g transform="matrix(0.905661,0,0,0.905661,2.27298,2.26413)"><path d="M37.007,22.095L35.711,22.095C35.649,22.126 35.588,22.19 35.588,22.286L35.588,43.587C35.588,43.683 35.649,43.747 35.742,43.747L37.099,43.747C38.673,43.747 39.938,42.402 39.938,40.801L39.938,19.116C39.938,20.749 38.673,22.063 37.099,22.063L37.007,22.063L37.007,22.095Z" style="fill:rgb(7,48,66);fill-rule:nonzero;"/></g></g></g><g transform="matrix(1,0,0,1,56.25,0)"><g><path d="M48,10C48,4.481 43.519,0 38,0L10,0C4.481,0 0,4.481 0,10L0,38C0,43.519 4.481,48 10,48L38,48C43.519,48 48,43.519 48,38L48,10Z" style="fill:rgb(36,41,56);"/><g transform="matrix(0.985086,0,0,0.985086,0.274184,0.357955)"><path d="M17.982,20.035C17.677,20.504 17.383,20.976 17.099,21.449C16.788,20.593 16.515,19.75 16.282,18.928C17.109,18.809 17.987,18.716 18.913,18.651C18.599,19.102 18.288,19.563 17.982,20.035ZM40.832,21.691C39.917,20.812 38.608,20.007 36.942,19.297C33.635,17.889 29.206,16.976 24.47,16.728C23.899,16.698 23.342,16.678 22.802,16.667C26.418,12.351 29.91,10.055 31.944,9.977C32.374,9.961 32.736,10.046 33.019,10.23C33.971,10.849 34.235,12.767 33.725,15.362C33.625,15.875 33.959,16.372 34.471,16.472C34.983,16.572 35.48,16.239 35.581,15.727C36.457,11.265 35.231,9.413 34.049,8.645C33.433,8.244 32.7,8.057 31.872,8.088C28.744,8.207 24.361,11.543 20.361,16.685C18.778,16.74 17.251,16.876 15.823,17.09C15.666,16.362 15.545,15.656 15.463,14.98C15.104,12.024 15.544,9.925 16.64,9.367C16.816,9.277 17.008,9.225 17.228,9.209C18.207,9.135 19.588,9.793 21.114,11.061C21.516,11.394 22.112,11.339 22.446,10.937C22.779,10.536 22.724,9.94 22.322,9.606C20.362,7.978 18.6,7.21 17.086,7.324C16.618,7.359 16.179,7.479 15.781,7.682C14.763,8.201 14.068,9.195 13.714,10.636C13.411,11.87 13.368,13.408 13.586,15.208C13.673,15.92 13.799,16.66 13.962,17.423C12.845,17.658 11.811,17.945 10.883,18.28C6.825,19.746 5.888,21.678 5.817,23.041C5.749,24.343 6.415,26.28 9.977,28.116C10.441,28.356 11.011,28.173 11.25,27.709C11.489,27.246 11.307,26.675 10.843,26.436C8.794,25.38 7.651,24.178 7.705,23.139C7.782,21.676 10.234,20.128 14.412,19.255C14.799,20.652 15.296,22.104 15.892,23.576C14.391,26.395 13.295,29.173 12.727,31.644C12.321,33.41 12.202,34.943 12.374,36.2C12.575,37.67 13.163,38.73 14.12,39.353C14.609,39.67 15.267,39.918 16.132,39.918C17.385,39.918 19.073,39.396 21.303,37.805C21.728,37.502 21.827,36.912 21.524,36.487C21.221,36.062 20.631,35.963 20.206,36.266C18.007,37.834 16.117,38.396 15.151,37.768C14.12,37.098 13.903,34.967 14.569,32.067C15.011,30.145 15.8,28.014 16.87,25.818C17.102,26.315 17.344,26.812 17.597,27.309C19.75,31.538 22.385,35.217 25.018,37.669C26.343,38.903 27.611,39.773 28.786,40.253C29.499,40.544 30.169,40.689 30.79,40.689C31.365,40.689 31.9,40.564 32.389,40.315C33.37,39.814 34.053,38.87 34.418,37.509C34.73,36.343 34.8,34.889 34.626,33.186C34.284,29.839 33.019,25.756 31.064,21.69C30.838,21.22 30.273,21.022 29.803,21.248C29.332,21.474 29.134,22.039 29.361,22.509C31.223,26.383 32.425,30.243 32.745,33.378C33.027,36.136 32.572,38.099 31.53,38.631C30.435,39.189 28.483,38.312 26.306,36.285C23.831,33.98 21.337,30.488 19.282,26.451C18.812,25.528 18.379,24.603 17.985,23.686C18.474,22.812 19.003,21.935 19.568,21.064C20.144,20.175 20.728,19.338 21.313,18.553C21.468,18.551 21.624,18.549 21.782,18.549C22.594,18.546 23.464,18.568 24.371,18.616C28.892,18.853 33.093,19.713 36.201,21.037C38.935,22.201 40.529,23.63 40.465,24.858C40.41,25.901 39.143,26.979 36.988,27.816C36.501,28.005 36.259,28.553 36.448,29.04C36.594,29.414 36.951,29.643 37.33,29.643C37.444,29.643 37.559,29.622 37.672,29.579C41.417,28.125 42.284,26.263 42.353,24.957C42.412,23.816 41.901,22.717 40.832,21.691Z" style="fill:rgb(91,193,133);fill-rule:nonzero;"/></g><g transform="matrix(0.985086,0,0,0.985086,0.274184,0.357955)"><path d="M22.134,24.252C22.134,25.394 23.059,26.319 24.199,26.319C25.34,26.319 26.265,25.394 26.265,24.252C26.265,23.11 25.34,22.185 24.199,22.185C23.059,22.185 22.134,23.11 22.134,24.252Z" style="fill:rgb(91,193,133);fill-rule:nonzero;"/></g></g></g><g transform="matrix(1,0,0,1,112.5,0)"><g><path d="M48,10C48,4.481 43.519,0 38,0L10,0C4.481,0 0,4.481 0,10L0,38C0,43.519 4.481,48 10,48L38,48C43.519,48 48,43.519 48,38L48,10Z" style="fill:rgb(36,41,56);"/><g transform="matrix(1.41014,0,0,1.41014,-9.78102,-9.86404)"><path d="M24.744,36.779C30.309,36.779 33.662,34.055 33.662,29.561C33.662,26.164 31.269,23.705 27.717,23.316L27.717,23.174C30.327,22.75 32.375,20.326 32.375,17.619C32.375,13.762 29.33,11.25 24.69,11.25L14.25,11.25L14.25,36.779L24.744,36.779ZM18.31,14.488L23.711,14.488C26.648,14.488 28.315,15.797 28.315,18.168C28.315,20.698 26.376,22.113 22.859,22.113L18.31,22.113L18.31,14.488ZM18.31,33.542L18.31,25.138L23.675,25.138C27.517,25.138 29.511,26.554 29.511,29.314C29.511,32.073 27.572,33.542 23.911,33.542L18.31,33.542Z" style="fill:url(#_Linear1);fill-rule:nonzero;"/></g></g></g><g transform="matrix(1,0,0,1,168.75,0)"><g><path d="M48,10C48,4.481 43.519,0 38,0L10,0C4.481,0 0,4.481 0,10L0,38C0,43.519 4.481,48 10,48L38,48C43.519,48 48,43.519 48,38L48,10Z" style="fill:rgb(36,41,56);"/><g transform="matrix(0.914286,0,0,0.914286,2.05714,2.05715)"><path d="M42.94,16.595L24.945,4.597C24.33,4.219 23.675,4.216 23.055,4.597L5.06,16.595C4.598,16.902 4.313,17.452 4.313,18.001L4.313,29.998C4.313,30.547 4.598,31.096 5.06,31.404L23.055,43.403C23.669,43.781 24.325,43.784 24.945,43.403L42.94,31.404C43.402,31.096 43.688,30.547 43.688,29.998L43.688,18.001C43.688,17.452 43.402,16.902 42.94,16.595ZM25.692,9.167L38.941,18.001L33.031,21.956L25.692,17.056L25.692,9.168L25.692,9.167ZM22.308,9.167L22.308,17.056L14.969,21.956L9.058,18.001L22.308,9.167ZM7.696,21.164L11.937,23.999L7.696,26.834L7.696,21.164ZM22.308,38.831L9.058,29.998L14.969,26.043L22.308,30.943L22.308,38.831ZM24,27.998L18.024,23.999L24,20L29.976,23.999L24,27.998ZM25.692,38.831L25.692,30.943L33.031,26.043L38.941,29.998L25.692,38.831L25.692,38.831ZM40.304,26.834L36.063,23.999L40.304,21.165L40.304,26.834Z" style="fill:white;fill-rule:nonzero;"/></g></g></g><g transform="matrix(1,0,0,1,225,0)"><g><path d="M48,10C48,4.481 43.519,0 38,0L10,0C4.481,0 0,4.481 0,10L0,38C0,43.519 4.481,48 10,48L38,48C43.519,48 48,43.519 48,38L48,10Z" style="fill:rgb(36,41,56);"/><g transform="matrix(1.06147,0,0,1.06147,-1.47517,-1.56294)"><path d="M10.079,19.247L10.615,25.236L24.018,25.236L24.018,19.247L10.079,19.247Z" style="fill:rgb(2,119,189);fill-rule:nonzero;"/></g><g transform="matrix(1.06147,0,0,1.06147,-1.47517,-1.56294)"><path d="M24.018,7.125L9,7.125L9.544,13.114L24.018,13.114L24.018,7.125Z" style="fill:rgb(2,119,189);fill-rule:nonzero;"/></g><g transform="matrix(1.06147,0,0,1.06147,-1.47517,-1.56294)"><path d="M24.018,41.033L24.018,34.802L23.992,34.808L17.321,33.008L16.895,28.231L10.883,28.231L11.722,37.635L23.99,41.04L24.018,41.033Z" style="fill:rgb(2,119,189);fill-rule:nonzero;"/></g><g transform="matrix(1.06147,0,0,1.06147,-1.47517,-1.56294)"><path d="M31.372,25.236L30.677,33.004L23.997,34.807L23.997,41.037L36.275,37.635L36.365,36.623L37.773,20.855L37.919,19.247L39,7.125L23.997,7.125L23.997,13.114L32.436,13.114L31.892,19.247L23.997,19.247L23.997,25.236L31.372,25.236Z" style="fill:rgb(2,119,189);fill-rule:nonzero;"/></g></g></g><g transform="matrix(1,0,0,1,281.25,0)"><g><path d="M48,10C48,4.481 43.519,0 38,0L10,0C4.481,0 0,4.481 0,10L0,38C0,43.519 4.481,48 10,48L38,48C43.519,48 48,43.519 48,38L48,10Z" style="fill:rgb(36,41,56);"/><g transform="matrix(0.96,0,0,0.96,0.96,1.03263)"><path d="M42.101,28.769L9.821,28.769C10.582,31.381 11.995,33.722 14.063,35.79C17.361,39.088 21.326,40.734 25.962,40.734C26.889,40.734 27.787,40.665 28.659,40.534C32.152,40.007 35.21,38.428 37.829,35.79C39.911,33.722 41.334,31.381 42.101,28.769Z" style="fill:rgb(44,34,85);fill-rule:nonzero;"/></g><g transform="matrix(0.96,0,0,0.96,0.96,1.03263)"><path d="M12.4,20.959L9.396,20.959C9.286,21.619 9.212,22.293 9.178,22.984L42.748,22.984C42.714,22.293 42.639,21.619 42.528,20.959" style="fill:rgb(44,34,85);fill-rule:nonzero;"/></g><g transform="matrix(0.96,0,0,0.96,0.96,1.03263)"><path d="M9.178,24.864C9.212,25.555 9.286,26.229 9.396,26.889L42.529,26.889C42.639,26.229 42.715,25.555 42.749,24.864" style="fill:rgb(44,34,85);fill-rule:nonzero;"/></g><g transform="matrix(0.96,0,0,0.96,0.96,1.03263)"><path d="M42.102,19.079C41.335,16.46 39.912,14.108 37.829,12.025C35.216,9.412 32.167,7.844 28.686,7.317C27.806,7.183 26.899,7.113 25.962,7.113C21.326,7.113 17.36,8.751 14.063,12.025C11.994,14.108 10.581,16.46 9.82,19.079" style="fill:rgb(44,34,85);fill-rule:nonzero;"/></g><g transform="matrix(0.96,0,0,0.96,0.96,1.03263)"><path d="M8.179,23.924C8.179,15.056 14.84,7.688 23.504,6.392C23.289,6.384 23.073,6.375 22.856,6.375C13.133,6.375 5.25,14.233 5.25,23.924C5.25,33.617 13.133,41.474 22.856,41.474C23.074,41.474 23.29,41.466 23.506,41.457C14.84,40.161 8.179,32.793 8.179,23.924Z" style="fill:rgb(247,148,30);fill-rule:nonzero;"/></g><g transform="matrix(0.96,0,0,0.96,0.96,1.03263)"><path d="M37.387,22.984C37.331,22.29 37.214,21.613 37.04,20.959L14.886,20.959C14.712,21.612 14.595,22.289 14.538,22.984L37.387,22.984Z" style="fill:url(#_Linear2);fill-rule:nonzero;"/></g><g transform="matrix(0.96,0,0,0.96,0.96,1.03263)"><path d="M37.387,24.864L14.539,24.864C14.595,25.558 14.712,26.235 14.886,26.889L37.04,26.889C37.214,26.235 37.331,25.558 37.387,24.864Z" style="fill:url(#_Linear3);fill-rule:nonzero;"/></g><g transform="matrix(0.96,0,0,0.96,0.96,1.03263)"><path d="M25.963,35.39C30.564,35.39 34.529,32.68 36.356,28.769L15.57,28.769C17.397,32.68 21.362,35.39 25.963,35.39Z" style="fill:url(#_Linear4);fill-rule:nonzero;"/></g><g transform="matrix(0.96,0,0,0.96,0.96,1.03263)"><path d="M9.172,24.864L42.725,24.864C42.741,24.565 42.75,24.264 42.75,23.96C42.75,23.632 42.738,23.307 42.719,22.983L9.178,22.983C9.159,23.307 9.147,23.632 9.147,23.96C9.147,24.264 9.156,24.565 9.172,24.864Z" style="fill:white;fill-rule:nonzero;"/></g><g transform="matrix(0.96,0,0,0.96,0.96,1.03263)"><path d="M15.503,19.079L9.819,19.079C9.633,19.691 9.512,20.319 9.396,20.96L42.422,20.96C42.306,20.32 42.156,19.692 41.97,19.079" style="fill:white;fill-rule:nonzero;"/></g><g transform="matrix(0.96,0,0,0.96,0.96,1.03263)"><path d="M42.524,26.888L9.396,26.888C9.509,27.528 9.637,28.156 9.82,28.769L42.08,28.769C42.263,28.157 42.411,27.529 42.524,26.888Z" style="fill:white;fill-rule:nonzero;"/></g></g></g><g transform="matrix(1,0,0,1,0,56.25)"><g><path d="M48,10C48,4.481 43.519,0 38,0L10,0C4.481,0 0,4.481 0,10L0,38C0,43.519 4.481,48 10,48L38,48C43.519,48 48,43.519 48,38L48,10Z" style="fill:rgb(36,41,56);"/><g transform="matrix(0.93348,0,0,0.93348,1.59627,1.14923)"><path d="M34.132,13.626C34.078,13.31 33.853,13.05 33.548,12.951C33.242,12.853 32.906,12.932 32.678,13.157L28.252,17.61L24.745,10.984C24.604,10.7 24.314,10.52 23.997,10.52C23.679,10.52 23.389,10.7 23.248,10.984L21.345,14.606L16.535,5.7C16.15,4.976 15.059,5.167 14.931,5.977L10.313,35.506L22.692,42.43C23.471,42.857 24.415,42.857 25.194,42.43L37.681,35.506L34.132,13.626Z" style="fill:url(#_Linear5);fill-rule:nonzero;"/><path d="M10.313,35.506L14.952,5.977C15.081,5.167 16.171,4.976 16.556,5.7L21.345,14.606L23.248,10.984C23.395,10.701 23.688,10.524 24.007,10.524C24.327,10.524 24.619,10.701 24.766,10.984L37.681,35.506L10.313,35.506Z" style="fill:rgb(255,160,0);fill-rule:nonzero;"/><rect x="8.602" y="12.71" width="18.602" height="23.649" style="fill:none;"/><path d="M26.306,24.001L21.324,14.606L10.313,35.506L26.306,24.001Z" style="fill:rgb(245,124,0);fill-rule:nonzero;"/><rect x="9.457" y="11.005" width="29.934" height="32.81" style="fill:none;"/><path d="M37.681,35.506L34.132,13.626C34.079,13.31 33.853,13.05 33.548,12.951C33.242,12.853 32.906,12.932 32.678,13.157L10.313,35.506L22.693,42.43C23.472,42.857 24.415,42.857 25.194,42.43L37.681,35.506Z" style="fill:rgb(255,202,40);fill-rule:nonzero;"/><path d="M34.132,13.626C34.079,13.31 33.853,13.05 33.548,12.951C33.242,12.853 32.906,12.932 32.678,13.157L28.252,17.61L24.745,10.984C24.604,10.7 24.314,10.52 23.997,10.52C23.679,10.52 23.389,10.7 23.248,10.984L21.345,14.606L16.535,5.7C16.15,4.976 15.059,5.167 14.931,5.977L10.313,35.506L10.291,35.506L10.313,35.527L10.441,35.591L28.23,17.823L32.678,13.391C32.906,13.166 33.242,13.087 33.548,13.186C33.853,13.284 34.079,13.544 34.132,13.86L37.638,35.527L37.681,35.506L34.132,13.626ZM10.355,35.464L14.952,6.19C15.081,5.38 16.171,5.189 16.556,5.913L21.345,14.819L23.248,11.197C23.395,10.914 23.688,10.737 24.008,10.737C24.327,10.737 24.619,10.914 24.767,11.197L28.187,17.674L10.355,35.464Z" style="fill:white;fill-opacity:0.2;fill-rule:nonzero;"/><path d="M25.194,42.217C24.415,42.643 23.471,42.643 22.692,42.217L10.334,35.314L10.313,35.506L22.692,42.43C23.471,42.857 24.415,42.857 25.194,42.43L37.681,35.506L37.659,35.314L25.194,42.217Z" style="fill:rgb(165,39,20);fill-opacity:0.2;fill-rule:nonzero;"/><path d="M34.132,13.626C34.078,13.31 33.853,13.05 33.548,12.951C33.242,12.853 32.906,12.932 32.678,13.157L28.252,17.61L24.745,10.984C24.604,10.7 24.314,10.52 23.997,10.52C23.679,10.52 23.389,10.7 23.248,10.984L21.345,14.606L16.535,5.7C16.15,4.976 15.059,5.167 14.931,5.977L10.313,35.506L22.692,42.43C23.471,42.857 24.415,42.857 25.194,42.43L37.681,35.506L34.132,13.626Z" style="fill:url(#_Linear6);fill-rule:nonzero;"/></g></g></g><g transform="matrix(1,0,0,1,56.25,56.25)"><g><path d="M48,10C48,4.481 43.519,0 38,0L10,0C4.481,0 0,4.481 0,10L0,38C0,43.519 4.481,48 10,48L38,48C43.519,48 48,43.519 48,38L48,10Z" style="fill:rgb(36,41,56);"/><g transform="matrix(0.959959,0,0,0.959959,0.960966,1.01723)"><path d="M42.042,22.33L25.67,5.958C25.446,5.734 25.18,5.556 24.887,5.434C24.594,5.313 24.28,5.25 23.962,5.25C23.645,5.25 23.331,5.313 23.038,5.434C22.745,5.556 22.479,5.734 22.255,5.958L18.857,9.356L23.169,13.669C24.172,13.317 25.321,13.557 26.12,14.357C26.5,14.738 26.766,15.218 26.886,15.743C27.007,16.268 26.977,16.816 26.801,17.325L30.957,21.482C31.963,21.135 33.123,21.359 33.926,22.164C34.193,22.431 34.404,22.748 34.549,23.096C34.693,23.445 34.767,23.819 34.767,24.196C34.767,24.574 34.693,24.947 34.548,25.296C34.404,25.645 34.192,25.961 33.925,26.228C33.658,26.495 33.341,26.707 32.993,26.851C32.644,26.996 32.27,27.07 31.893,27.07C31.515,27.07 31.142,26.995 30.793,26.851C30.444,26.706 30.127,26.495 29.861,26.228C29.017,25.384 28.808,24.142 29.235,23.102L25.358,19.226L25.358,29.427C25.64,29.566 25.897,29.75 26.12,29.971C26.387,30.238 26.598,30.554 26.743,30.903C26.887,31.252 26.962,31.625 26.962,32.003C26.962,32.38 26.887,32.754 26.743,33.102C26.598,33.451 26.387,33.768 26.12,34.035C25.853,34.302 25.536,34.513 25.188,34.658C24.839,34.802 24.465,34.877 24.088,34.877C23.711,34.877 23.337,34.802 22.988,34.658C22.639,34.513 22.323,34.302 22.056,34.035C21.789,33.768 21.577,33.451 21.432,33.103C21.287,32.754 21.213,32.38 21.213,32.003C21.213,31.625 21.287,31.252 21.432,30.903C21.577,30.554 21.789,30.237 22.056,29.971C22.334,29.694 22.642,29.484 22.997,29.344L22.997,19.048C22.655,18.907 22.334,18.7 22.056,18.421C21.652,18.018 21.378,17.504 21.268,16.944C21.158,16.385 21.217,15.805 21.437,15.279L17.183,11.027L5.957,22.242C5.732,22.466 5.554,22.733 5.433,23.026C5.311,23.319 5.249,23.633 5.249,23.95C5.249,24.267 5.311,24.582 5.433,24.875C5.554,25.168 5.732,25.434 5.957,25.658L22.33,42.029C22.554,42.254 22.82,42.431 23.113,42.553C23.406,42.674 23.72,42.737 24.037,42.737C24.355,42.737 24.669,42.674 24.962,42.553C25.255,42.431 25.521,42.254 25.745,42.029L42.042,25.758C42.267,25.534 42.445,25.267 42.566,24.974C42.688,24.681 42.75,24.367 42.75,24.05C42.75,23.733 42.688,23.418 42.566,23.125C42.445,22.832 42.267,22.566 42.042,22.342" style="fill:rgb(240,60,46);fill-rule:nonzero;"/></g></g></g><g transform="matrix(1,0,0,1,112.5,56.25)"><g><path d="M48,10C48,4.481 43.519,0 38,0L10,0C4.481,0 0,4.481 0,10L0,38C0,43.519 4.481,48 10,48L38,48C43.519,48 48,43.519 48,38L48,10Z" style="fill:rgb(36,41,56);"/><g transform="matrix(0.96,0,0,0.96,0.96,1.09432)"><path d="M24,5.625C13.646,5.625 5.25,14.02 5.25,24.375C5.25,32.66 10.622,39.688 18.073,42.167C19.01,42.341 19.354,41.76 19.354,41.265C19.354,40.818 19.336,39.341 19.328,37.774C14.112,38.909 13.011,35.562 13.011,35.562C12.158,33.395 10.929,32.819 10.929,32.819C9.228,31.655 11.057,31.679 11.057,31.679C12.94,31.811 13.932,33.611 13.932,33.611C15.604,36.477 18.318,35.649 19.388,35.17C19.556,33.958 20.042,33.131 20.578,32.662C16.414,32.188 12.036,30.58 12.036,23.396C12.036,21.349 12.768,19.676 13.968,18.363C13.773,17.891 13.131,15.984 14.149,13.401C14.149,13.401 15.724,12.897 19.307,15.323C20.803,14.908 22.407,14.699 24,14.692C25.594,14.699 27.199,14.908 28.697,15.323C32.276,12.897 33.848,13.401 33.848,13.401C34.869,15.984 34.227,17.891 34.032,18.363C35.234,19.676 35.962,21.349 35.962,23.396C35.962,30.598 31.576,32.183 27.4,32.647C28.073,33.229 28.672,34.37 28.672,36.12C28.672,38.628 28.65,40.648 28.65,41.265C28.65,41.764 28.988,42.349 29.938,42.165C37.384,39.683 42.75,32.657 42.75,24.375C42.75,14.02 34.355,5.625 24,5.625Z" style="fill:white;fill-rule:nonzero;"/></g></g></g><g transform="matrix(1,0,0,1,168.75,56.25)"><g><path d="M48,10C48,4.481 43.519,0 38,0L10,0C4.481,0 0,4.481 0,10L0,38C0,43.519 4.481,48 10,48L38,48C43.519,48 48,43.519 48,38L48,10Z" style="fill:rgb(36,41,56);"/><g transform="matrix(0.941176,0,0,0.941176,1.41177,1.41178)"><path d="M24,41.25L31.043,20.027L16.958,20.027L24,41.249L24,41.25Z" style="fill:rgb(226,67,41);fill-rule:nonzero;"/></g><g transform="matrix(0.941176,0,0,0.941176,1.41177,1.41178)"><path d="M24,41.25L16.958,20.027L7.088,20.027L24,41.249L24,41.25Z" style="fill:rgb(252,109,38);fill-rule:nonzero;"/></g><g transform="matrix(0.941176,0,0,0.941176,1.41177,1.41178)"><path d="M7.088,20.026L4.947,26.476C4.751,27.064 4.964,27.709 5.476,28.072L24,41.25L7.088,20.027L7.088,20.026Z" style="fill:rgb(252,163,38);fill-rule:nonzero;"/></g><g transform="matrix(0.941176,0,0,0.941176,1.41177,1.41178)"><path d="M7.088,20.026L16.958,20.026L12.716,7.243C12.497,6.586 11.547,6.586 11.329,7.243L7.088,20.027L7.088,20.026Z" style="fill:rgb(226,67,41);fill-rule:nonzero;"/></g><g transform="matrix(0.941176,0,0,0.941176,1.41177,1.41178)"><path d="M24,41.25L31.043,20.027L40.913,20.027L24,41.249L24,41.25Z" style="fill:rgb(252,109,38);fill-rule:nonzero;"/></g><g transform="matrix(0.941176,0,0,0.941176,1.41177,1.41178)"><path d="M40.913,20.026L43.054,26.476C43.249,27.064 43.035,27.709 42.524,28.072L24,41.25L40.913,20.027L40.913,20.026Z" style="fill:rgb(252,163,38);fill-rule:nonzero;"/></g><g transform="matrix(0.941176,0,0,0.941176,1.41177,1.41178)"><path d="M40.913,20.026L31.043,20.026L35.285,7.243C35.503,6.586 36.454,6.586 36.671,7.243L40.913,20.027L40.913,20.026Z" style="fill:rgb(226,67,41);fill-rule:nonzero;"/></g></g></g><g transform="matrix(1,0,0,1,225,56.25)"><g><path d="M48,10C48,4.481 43.519,0 38,0L10,0C4.481,0 0,4.481 0,10L0,38C0,43.519 4.481,48 10,48L38,48C43.519,48 48,43.519 48,38L48,10Z" style="fill:rgb(36,41,56);"/><g transform="matrix(1.06143,0,0,1.06143,-1.47433,-1.47944)"><path d="M9,7.125L10.614,25.236L31.372,25.236L30.676,33.004L23.992,34.811L17.321,33.007L16.875,28.019L10.864,28.019L11.723,37.634L23.991,41.042L36.274,37.634L37.921,19.248L16.092,19.248L15.544,13.115L38.464,13.115L39,7.125L9,7.125Z" style="fill:rgb(225,78,29);fill-rule:nonzero;"/></g></g></g><g transform="matrix(1,0,0,1,281.25,56.25)"><g><path d="M48,10C48,4.481 43.519,0 38,0L10,0C4.481,0 0,4.481 0,10L0,38C0,43.519 4.481,48 10,48L38,48C43.519,48 48,43.519 48,38L48,10Z" style="fill:rgb(36,41,56);"/><g transform="matrix(0.96,0,0,0.96,0.96,0.96)"><path d="M14.732,34.5L5.679,27.321L10.179,18.964L23.089,24L14.732,34.5Z" style="fill:url(#_Linear7);fill-rule:nonzero;"/></g><g transform="matrix(0.96,0,0,0.96,0.96,0.96)"><path d="M42.75,15.268L42.054,36.964L27.643,42.75L18.964,37.179L31.661,24L26.089,11.839L31.071,5.839L42.75,15.268Z" style="fill:url(#_Linear8);fill-rule:nonzero;"/></g><g transform="matrix(0.96,0,0,0.96,0.96,0.96)"><path d="M42.75,15.268L31.339,28.768L26.089,11.839L31.071,5.839L42.75,15.268Z" style="fill:url(#_Linear9);fill-rule:nonzero;"/></g><g transform="matrix(0.96,0,0,0.96,0.96,0.96)"><path d="M23.304,36.375L8.25,41.839L10.661,33.375L13.821,22.982L5.25,20.089L10.661,5.25L22.446,6.696L34.018,19.929L23.304,36.375Z" style="fill:url(#_Linear10);fill-rule:nonzero;"/></g><g transform="matrix(0.96,0,0,0.96,0.96,0.96)"><rect x="12.589" y="12.482" width="23.143" height="23.143" style="fill-rule:nonzero;"/></g><g transform="matrix(0.96,0,0,0.96,0.96,0.96)"><rect x="14.732" y="31.286" width="8.679" height="1.446" style="fill:white;fill-rule:nonzero;"/></g><g transform="matrix(0.96,0,0,0.96,0.96,0.96)"><path d="M21,17.25L21,15.482L16.179,15.482L16.179,17.25L17.571,17.25L17.571,23.304L16.179,23.304L16.179,25.071L21,25.071L21,23.304L19.661,23.304L19.661,17.25L21,17.25Z" style="fill:white;fill-rule:nonzero;"/></g><g transform="matrix(0.96,0,0,0.96,0.96,0.96)"><path d="M25.607,25.232C24.857,25.232 24.214,25.071 23.732,24.804C23.25,24.536 22.821,24.161 22.5,23.786L23.839,22.286C24.107,22.607 24.375,22.821 24.643,22.982C24.911,23.143 25.232,23.25 25.554,23.25C25.929,23.25 26.25,23.143 26.518,22.875C26.732,22.607 26.839,22.232 26.839,21.643L26.839,15.482L28.982,15.482L28.982,21.75C28.982,22.339 28.929,22.821 28.768,23.25C28.607,23.679 28.393,24 28.071,24.321C27.804,24.589 27.429,24.857 27,24.964C26.571,25.125 26.143,25.232 25.607,25.232Z" style="fill:white;fill-rule:nonzero;"/></g></g></g><g transform="matrix(1,0,0,1,0,112.5)"><g><path d="M48,10C48,4.481 43.519,0 38,0L10,0C4.481,0 0,4.481 0,10L0,38C0,43.519 4.481,48 10,48L38,48C43.519,48 48,43.519 48,38L48,10Z" style="fill:rgb(36,41,56);"/><g transform="matrix(0.959999,0,0,0.959999,1.05647,0.960029)"><path d="M19.056,34.241C19.056,34.241 17.617,35.117 20.059,35.368C23.008,35.744 24.567,35.681 27.822,35.055C27.822,35.055 28.699,35.62 29.889,36.057C22.562,39.188 13.295,35.87 19.056,34.241ZM18.117,30.171C18.117,30.171 16.552,31.361 18.994,31.611C22.186,31.924 24.692,31.987 29.012,31.111C29.012,31.111 29.576,31.738 30.515,32.051C21.687,34.68 11.793,32.3 18.117,30.172L18.117,30.171ZM35.399,37.31C35.399,37.31 36.463,38.186 34.209,38.875C30.014,40.127 16.614,40.504 12.858,38.875C11.543,38.311 14.047,37.497 14.861,37.372C15.675,37.184 16.113,37.184 16.113,37.184C14.673,36.182 6.533,39.251 11.98,40.134C26.945,42.576 39.281,39.069 35.399,37.316L35.399,37.31ZM19.745,25.913C19.745,25.913 12.92,27.542 17.302,28.104C19.181,28.354 22.875,28.292 26.319,28.042C29.137,27.791 31.961,27.29 31.961,27.29C31.961,27.29 30.959,27.729 30.27,28.167C23.314,29.984 9.977,29.17 13.797,27.291C17.054,25.726 19.745,25.913 19.745,25.913ZM31.954,32.738C38.968,29.106 35.711,25.6 33.457,26.039C32.893,26.164 32.643,26.289 32.643,26.289C32.643,26.289 32.831,25.913 33.269,25.789C37.715,24.223 41.222,30.485 31.829,32.927C31.829,32.927 31.892,32.864 31.954,32.739L31.954,32.738ZM20.434,42.631C27.196,43.069 37.528,42.381 37.778,39.187C37.778,39.187 37.278,40.439 32.206,41.378C26.445,42.442 19.307,42.317 15.112,41.628C15.112,41.628 15.988,42.379 20.434,42.63L20.434,42.631Z" style="fill:white;fill-rule:nonzero;"/></g><g transform="matrix(0.959999,0,0,0.959999,1.05647,0.960029)"><path d="M27.691,5.25C27.691,5.25 31.573,9.195 23.997,15.142C17.923,19.964 22.619,22.719 23.997,25.849C20.428,22.656 17.861,19.838 19.614,17.208C22.187,13.328 29.262,11.45 27.691,5.25ZM25.688,23.22C27.503,25.287 25.187,27.165 25.187,27.165C25.187,27.165 29.821,24.787 27.692,21.843C25.751,19.025 24.248,17.647 32.388,12.95C32.388,12.95 19.552,16.143 25.689,23.219L25.688,23.22Z" style="fill:rgb(245,130,25);fill-rule:nonzero;"/></g></g></g><g transform="matrix(1,0,0,1,56.25,112.5)"><g><path d="M48,10C48,4.481 43.519,0 38,0L10,0C4.481,0 0,4.481 0,10L0,38C0,43.519 4.481,48 10,48L38,48C43.519,48 48,43.519 48,38L48,10Z" style="fill:rgb(36,41,56);"/><g transform="matrix(1.13774,0,0,1.13774,-8.35926,-13.554)"><path d="M12.621,40.112L16.294,37.889C17.003,39.146 17.648,40.209 19.194,40.209C20.676,40.209 21.611,39.629 21.611,37.374L21.611,22.037L26.121,22.037L26.121,37.438C26.121,42.109 23.383,44.236 19.387,44.236C15.779,44.236 13.684,42.367 12.621,40.112" style="fill:rgb(240,219,79);fill-rule:nonzero;"/></g><g transform="matrix(1.13774,0,0,1.13774,-8.35926,-13.554)"><path d="M28.571,39.629L32.244,37.502C33.211,39.081 34.468,40.241 36.691,40.241C38.56,40.241 39.752,39.307 39.752,38.018C39.752,36.471 38.527,35.924 36.465,35.022L35.338,34.538C32.083,33.153 29.924,31.413 29.924,27.74C29.924,24.356 32.502,21.779 36.53,21.779C39.398,21.779 41.46,22.778 42.942,25.388L39.43,27.643C38.656,26.258 37.819,25.71 36.53,25.71C35.209,25.71 34.371,26.548 34.371,27.643C34.371,28.996 35.209,29.544 37.142,30.382L38.27,30.865C42.104,32.509 44.263,34.184 44.263,37.953C44.263,42.014 41.073,44.237 36.787,44.237C32.599,44.237 29.892,42.239 28.571,39.629" style="fill:rgb(240,219,79);fill-rule:nonzero;"/></g></g></g><g transform="matrix(1,0,0,1,112.5,112.5)"><g><path d="M48,10C48,4.481 43.519,0 38,0L10,0C4.481,0 0,4.481 0,10L0,38C0,43.519 4.481,48 10,48L38,48C43.519,48 48,43.519 48,38L48,10Z" style="fill:rgb(36,41,56);"/><g transform="matrix(0.893006,0,0,0.893006,2.56953,2.65123)"><path d="M16.115,37.486L20.715,40.04L27.67,40.04L34.177,35.155L37.094,27.494L30.363,19.388L28.456,14.836L19.145,15.169L19.257,17.723L17.462,21.054L14.657,26.494L14.096,31.046L16.115,37.486Z" style="fill:rgb(236,239,241);fill-rule:nonzero;"/></g><g transform="matrix(0.893006,0,0,0.893006,2.56953,2.65123)"><path d="M35.075,21.498C33.28,18.944 31.821,17.39 31.036,14.17C30.251,10.95 31.26,11.838 30.587,9.063C30.251,7.619 29.69,6.62 29.129,5.843C28.456,5.066 27.67,4.622 27.222,4.511C26.212,3.955 23.856,3.067 20.939,4.622C17.91,6.176 18.247,9.507 18.808,16.28C18.808,16.724 18.696,17.279 18.471,17.723C18.023,18.722 17.237,19.61 16.564,20.388C15.779,21.498 14.994,22.608 14.433,23.83C13.087,26.383 11.853,29.603 12.189,30.824C12.75,30.713 19.818,41.372 19.818,41.594C20.266,41.483 22.173,41.483 23.856,41.483C26.212,41.372 27.558,41.261 29.465,41.705C29.465,41.372 29.353,41.039 29.353,40.706C29.353,40.04 29.465,39.485 29.578,38.707C29.69,38.152 29.802,37.597 29.914,36.931C28.792,37.93 26.773,39.041 24.866,39.374C23.183,39.707 20.378,39.152 19.032,37.486C19.145,37.486 19.369,37.486 19.481,37.375C19.818,37.264 20.154,37.153 20.266,36.931C20.603,36.376 20.378,35.821 20.154,35.488C19.93,35.155 18.247,33.933 17.462,33.267C16.676,32.601 16.228,32.268 15.779,31.824C15.779,31.824 15.106,31.158 14.881,30.935C14.657,30.713 14.545,30.491 14.433,30.38C14.208,29.825 14.096,29.159 14.208,28.271C14.321,27.05 14.769,26.05 15.33,24.94C15.555,24.496 16.115,23.608 16.115,23.608C16.115,23.608 14.208,28.271 15.218,29.714C15.218,29.714 15.33,28.271 15.779,26.828C16.115,25.828 16.676,24.385 17.35,23.608C18.023,22.83 19.705,19.944 19.818,18.167C19.818,17.39 19.93,16.613 19.93,16.058C19.481,15.613 27.334,14.503 27.783,15.725C27.895,16.169 29.465,20.166 30.363,22.275C30.812,23.275 31.372,24.163 31.709,25.273C32.046,26.494 32.27,28.16 32.27,29.825C32.27,30.158 32.27,30.713 32.158,31.269C32.382,31.269 36.757,26.605 31.597,22.719C31.597,22.719 34.738,24.163 34.85,27.05C34.962,29.381 33.953,31.269 33.728,31.602C33.841,31.602 36.084,32.601 36.196,32.601C36.645,32.601 37.543,32.268 37.543,32.268C37.655,31.935 37.991,31.046 37.991,30.713C38.777,28.16 36.869,24.052 35.075,21.498Z" style="fill:rgb(38,50,56);fill-rule:nonzero;"/></g><g transform="matrix(0.893006,0,0,0.893006,2.56953,2.65123)"><path d="M20.827,14.17C21.633,14.17 22.286,13.176 22.286,11.95C22.286,10.723 21.633,9.729 20.827,9.729C20.022,9.729 19.369,10.723 19.369,11.95C19.369,13.176 20.022,14.17 20.827,14.17Z" style="fill:rgb(236,239,241);fill-rule:nonzero;"/></g><g transform="matrix(0.893006,0,0,0.893006,2.56953,2.65123)"><path d="M25.875,14.392C26.929,14.392 27.783,13.249 27.783,11.838C27.783,10.428 26.929,9.285 25.875,9.285C24.822,9.285 23.968,10.428 23.968,11.838C23.968,13.249 24.822,14.392 25.875,14.392Z" style="fill:rgb(236,239,241);fill-rule:nonzero;"/></g><g transform="matrix(0.893006,0,0,0.893006,2.56953,2.65123)"><path d="M21.642,12.101C21.549,11.371 21.124,10.823 20.694,10.877C20.264,10.931 19.991,11.566 20.084,12.296C20.177,13.026 20.601,13.575 21.032,13.521C21.462,13.467 21.735,12.831 21.642,12.101Z" style="fill:rgb(33,33,33);fill-rule:nonzero;"/></g><g transform="matrix(0.893006,0,0,0.893006,2.56953,2.65123)"><path d="M25.763,13.726C26.383,13.726 26.885,13.08 26.885,12.283C26.885,11.485 26.383,10.839 25.763,10.839C25.144,10.839 24.641,11.485 24.641,12.283C24.641,13.08 25.144,13.726 25.763,13.726Z" style="fill:rgb(33,33,33);fill-rule:nonzero;"/></g><g transform="matrix(0.893006,0,0,0.893006,2.56953,2.65123)"><path d="M40.684,36.709C40.235,36.487 39.45,36.154 38.777,35.155C38.44,34.599 38.552,33.045 37.991,32.379C37.655,31.935 37.206,32.157 37.094,32.157C36.084,32.379 33.728,33.933 32.158,32.157C31.933,31.935 31.597,31.602 31.036,31.602C30.475,31.602 30.251,31.824 30.026,32.268C29.802,32.712 29.802,33.045 29.802,34.155C29.802,35.044 29.802,36.043 29.69,36.82C29.465,38.707 29.129,39.818 29.129,40.928C29.129,42.149 29.465,42.927 29.914,43.26C30.251,43.593 30.812,43.815 32.046,43.815C33.28,43.815 34.065,43.371 34.85,42.593C35.411,42.038 35.86,41.816 37.43,40.706C38.664,39.929 40.572,38.93 40.908,38.597C41.132,38.375 41.469,38.263 41.469,37.597C41.469,37.042 41.02,36.82 40.684,36.709Z" style="fill:rgb(255,193,7);fill-rule:nonzero;"/></g><g transform="matrix(0.893006,0,0,0.893006,2.56953,2.65123)"><path d="M18.135,37.042C17.013,35.266 16.901,34.933 16.115,33.822C15.442,32.712 13.984,30.602 13.087,30.602C12.413,30.602 12.077,30.935 11.628,31.38C11.179,31.824 10.731,32.823 9.945,33.378C9.272,33.933 7.365,33.822 6.916,34.488C6.468,35.155 7.365,36.154 7.365,37.819C7.365,38.486 6.804,38.93 6.692,39.374C6.58,39.929 6.468,40.262 6.692,40.706C7.141,41.372 7.702,41.594 11.516,42.371C13.535,42.816 15.442,43.926 16.676,44.037C17.91,44.148 20.042,44.037 20.042,41.039C20.154,39.263 19.145,38.819 18.135,37.042Z" style="fill:rgb(255,193,7);fill-rule:nonzero;"/></g><g transform="matrix(0.893006,0,0,0.893006,2.56953,2.65123)"><path d="M20.266,16.946C19.593,16.502 19.032,16.058 19.032,15.391C19.032,14.725 19.481,14.503 20.154,13.948C20.266,13.837 21.5,12.727 22.734,12.727C23.968,12.727 25.427,13.504 25.988,13.726C26.997,13.948 28.007,14.17 27.895,14.947C27.783,16.058 27.67,16.28 26.549,16.835C25.763,17.057 24.305,18.278 23.295,18.278C22.847,18.278 22.173,18.278 21.725,18.167C21.388,18.056 20.827,17.501 20.266,16.946Z" style="fill:rgb(255,193,7);fill-rule:nonzero;"/></g><g transform="matrix(0.893006,0,0,0.893006,2.56953,2.65123)"><path d="M20.042,16.058C20.266,16.28 20.603,16.502 20.939,16.613C21.164,16.724 21.5,16.835 21.5,16.835L22.51,16.835C23.071,16.835 23.856,16.613 24.641,16.169C25.427,15.836 25.539,15.613 26.1,15.391C26.661,15.058 27.222,14.725 26.997,14.614C26.773,14.503 26.549,14.614 25.763,15.058C25.09,15.502 24.529,15.725 23.856,16.058C23.52,16.169 23.071,16.391 22.734,16.391L21.725,16.391C21.388,16.391 21.164,16.28 20.827,16.169C20.603,16.058 20.491,15.947 20.378,15.947C20.154,15.836 19.705,15.391 19.481,15.28C19.481,15.28 19.257,15.28 19.369,15.391C19.705,15.725 19.818,15.836 20.042,16.058Z" style="fill:rgb(99,71,3);fill-rule:nonzero;"/></g><g transform="matrix(0.893006,0,0,0.893006,2.56953,2.65123)"><path d="M23.408,13.615C23.52,13.837 23.744,13.837 23.856,13.948C23.968,14.059 24.08,14.059 24.08,14.059C24.193,13.948 24.08,13.726 23.968,13.726C23.968,13.504 23.408,13.504 23.408,13.615Z" style="fill:rgb(99,71,3);fill-rule:nonzero;"/></g><g transform="matrix(0.893006,0,0,0.893006,2.56953,2.65123)"><path d="M21.613,13.837C21.613,13.948 21.837,14.059 21.837,13.948C21.949,13.837 22.061,13.726 22.173,13.726C22.398,13.615 22.286,13.504 21.949,13.504C21.725,13.615 21.725,13.726 21.613,13.837Z" style="fill:rgb(99,71,3);fill-rule:nonzero;"/></g><g transform="matrix(0.893006,0,0,0.893006,2.56953,2.65123)"><path d="M32.494,33.489L32.494,33.822C32.719,34.266 33.28,34.377 33.728,34.377C34.401,34.377 35.075,33.933 35.411,33.489C35.411,33.378 35.523,33.267 35.636,33.156C35.86,32.823 35.972,32.601 36.084,32.49C36.084,32.49 35.972,32.379 35.972,32.268C35.86,32.046 35.523,31.824 35.075,31.713C34.738,31.602 34.177,31.491 33.953,31.491C32.943,31.38 32.382,31.713 32.046,32.046C32.046,32.046 32.158,32.046 32.158,32.157C32.382,32.379 32.494,32.601 32.494,32.934C32.606,33.156 32.494,33.267 32.494,33.489Z" style="fill:rgb(69,90,100);fill-rule:nonzero;"/></g></g></g><g transform="matrix(1,0,0,1,168.75,112.5)"><g><path d="M48,10C48,4.481 43.519,0 38,0L10,0C4.481,0 0,4.481 0,10L0,38C0,43.519 4.481,48 10,48L38,48C43.519,48 48,43.519 48,38L48,10Z" style="fill:rgb(36,41,56);"/><g transform="matrix(0.969697,0,0,0.969697,0.727273,0.727273)"><path d="M40.688,12.938L7.313,12.938C6.277,12.938 5.438,13.777 5.438,14.813L5.438,33.188C5.438,34.223 6.277,35.063 7.313,35.063L40.688,35.063C41.723,35.063 42.563,34.223 42.563,33.188L42.563,14.813C42.563,13.777 41.723,12.938 40.688,12.938Z" style="fill:none;fill-rule:nonzero;stroke:white;stroke-width:1.88px;"/></g><g transform="matrix(0.969697,0,0,0.969697,0.727273,0.727273)"><path d="M10.125,30.375L10.125,17.625L13.875,17.625L17.625,22.313L21.375,17.625L25.125,17.625L25.125,30.375L21.375,30.375L21.375,23.063L17.625,27.75L13.875,23.063L13.875,30.375L10.125,30.375ZM33.563,30.375L27.938,24.188L31.688,24.188L31.688,17.625L35.438,17.625L35.438,24.188L39.188,24.188L33.563,30.375Z" style="fill:white;fill-rule:nonzero;"/></g></g></g><g transform="matrix(1,0,0,1,225,112.5)"><g><path d="M48,10C48,4.481 43.519,0 38,0L10,0C4.481,0 0,4.481 0,10L0,38C0,43.519 4.481,48 10,48L38,48C43.519,48 48,43.519 48,38L48,10Z" style="fill:rgb(36,41,56);"/><g transform="matrix(1.28,0,0,1.28,-6.71998,-6.80985)"><path d="M15.171,35.119C15.082,35.164 15.037,35.253 15.059,35.343L15.441,36.96C15.531,37.185 15.396,37.454 15.149,37.522C14.969,37.589 14.767,37.522 14.655,37.387L12.185,34.939L20.246,26.877L23.031,26.922L24.917,28.809C24.468,29.19 21.751,31.818 15.171,35.119Z" style="fill:rgb(255,108,55);fill-rule:nonzero;"/></g><g transform="matrix(1.28,0,0,1.28,-6.71998,-6.80985)"><path d="M14.992,37.746C14.812,37.746 14.632,37.679 14.52,37.544L12.072,35.096C12.028,35.051 12.005,35.006 12.005,34.939C12.005,34.872 12.028,34.827 12.072,34.782L20.134,26.72C20.179,26.675 20.246,26.653 20.291,26.653L23.076,26.698C23.143,26.698 23.188,26.72 23.233,26.765L25.119,28.651C25.164,28.696 25.187,28.763 25.187,28.831C25.187,28.898 25.164,28.943 25.097,28.988L24.94,29.123C22.559,31.211 19.326,33.3 15.306,35.298L15.688,36.893C15.755,37.184 15.621,37.499 15.351,37.656C15.216,37.723 15.104,37.746 14.992,37.746ZM12.522,34.939L14.835,37.229C14.902,37.342 15.037,37.387 15.149,37.319C15.261,37.252 15.306,37.117 15.239,37.005L14.857,35.388C14.812,35.186 14.902,35.006 15.082,34.916C19.056,32.918 22.268,30.852 24.625,28.808L22.964,27.147L20.381,27.102L12.522,34.939Z" style="fill:white;fill-rule:nonzero;"/></g><g transform="matrix(1.28,0,0,1.28,-6.71998,-6.80985)"><path d="M10.276,36.87L12.207,34.939L15.082,37.813L10.501,37.499C10.298,37.477 10.164,37.297 10.186,37.095C10.186,37.005 10.209,36.915 10.276,36.87Z" style="fill:rgb(255,108,55);fill-rule:nonzero;"/></g><g transform="matrix(1.28,0,0,1.28,-6.71998,-6.80985)"><path d="M15.082,38.015L10.478,37.701C10.141,37.679 9.917,37.387 9.939,37.05C9.962,36.915 10.006,36.78 10.119,36.691L12.05,34.759C12.14,34.67 12.275,34.67 12.364,34.759L15.239,37.634C15.306,37.701 15.329,37.791 15.284,37.881C15.239,37.971 15.171,38.015 15.082,38.015ZM12.207,35.253L10.433,37.027C10.366,37.072 10.366,37.185 10.433,37.229C10.456,37.252 10.478,37.274 10.523,37.274L14.498,37.544L12.207,35.253Z" style="fill:white;fill-rule:nonzero;"/></g><g transform="matrix(1.28,0,0,1.28,-6.71998,-6.80985)"><path d="M24.94,28.808L22.357,26.226L31.834,16.75C34.371,19.31 30.576,23.464 24.94,28.808Z" style="fill:rgb(255,108,55);fill-rule:nonzero;"/></g><g transform="matrix(1.28,0,0,1.28,-6.71998,-6.80985)"><path d="M24.94,29.033C24.872,29.033 24.828,29.011 24.783,28.966L22.2,26.383C22.155,26.338 22.155,26.293 22.155,26.226C22.155,26.159 22.178,26.114 22.223,26.069L31.699,16.592C31.789,16.503 31.924,16.503 32.013,16.592C32.597,17.131 32.912,17.895 32.889,18.681C32.844,21.173 30.015,24.34 25.119,28.966C25.052,29.011 24.985,29.033 24.94,29.033ZM22.672,26.226C24.109,27.686 24.715,28.27 24.94,28.494C28.712,24.901 32.373,21.218 32.395,18.681C32.418,18.097 32.193,17.513 31.811,17.064L22.672,26.226Z" style="fill:white;fill-rule:nonzero;"/></g><g transform="matrix(1.28,0,0,1.28,-6.71998,-6.80985)"><path d="M31.699,16.615L22.223,26.091L19.55,23.419C28.87,14.1 29.79,14.908 31.699,16.615Z" style="fill:rgb(255,108,55);fill-rule:nonzero;"/></g><g transform="matrix(1.28,0,0,1.28,-6.71998,-6.80985)"><path d="M22.223,26.316C22.155,26.316 22.11,26.293 22.065,26.248L19.371,23.576C19.281,23.486 19.281,23.352 19.371,23.262C28.847,13.785 29.835,14.683 31.834,16.48C31.879,16.525 31.901,16.57 31.901,16.637C31.901,16.705 31.879,16.749 31.834,16.794L22.357,26.248C22.335,26.293 22.268,26.316 22.223,26.316ZM19.865,23.419L22.223,25.777L31.362,16.637C29.701,15.155 28.578,14.706 19.865,23.419Z" style="fill:white;fill-rule:nonzero;"/></g><g transform="matrix(1.28,0,0,1.28,-6.71998,-6.80985)"><path d="M23.031,26.922L20.561,27.461C20.381,27.506 20.201,27.394 20.157,27.214C20.134,27.102 20.157,26.99 20.246,26.9L21.616,25.53L23.031,26.922Z" style="fill:rgb(255,108,55);fill-rule:nonzero;"/></g><g transform="matrix(1.28,0,0,1.28,-6.71998,-6.80985)"><path d="M19.46,27.91C19.326,27.91 19.236,27.798 19.236,27.686C19.236,27.618 19.258,27.574 19.303,27.529L21.482,25.35C21.571,25.26 21.706,25.26 21.796,25.35L23.211,26.765C23.278,26.832 23.3,26.9 23.278,26.99C23.255,27.057 23.188,27.124 23.098,27.147L19.505,27.91L19.46,27.91ZM21.639,25.822L20.157,27.304L22.582,26.787L21.639,25.822Z" style="fill:white;fill-rule:nonzero;"/></g><g transform="matrix(1.28,0,0,1.28,-6.71998,-6.80985)"><path d="M20.516,27.686C20.201,27.686 19.955,27.439 19.955,27.124C19.955,26.967 20.022,26.832 20.112,26.72L21.482,25.35C21.571,25.26 21.706,25.26 21.796,25.35L23.211,26.765C23.278,26.832 23.3,26.9 23.278,26.99C23.255,27.057 23.188,27.124 23.098,27.147L20.628,27.686L20.516,27.686ZM21.639,25.822L20.426,27.035C20.381,27.08 20.381,27.124 20.404,27.169C20.426,27.214 20.471,27.237 20.538,27.237L22.604,26.787L21.639,25.822Z" style="fill:white;fill-rule:nonzero;"/></g><g transform="matrix(1.28,0,0,1.28,-6.71998,-6.80985)"><path d="M19.595,23.486L21.504,25.395C21.549,25.44 21.549,25.485 21.504,25.53C21.482,25.552 21.482,25.552 21.459,25.552L17.507,26.406C17.305,26.428 17.125,26.293 17.08,26.091C17.058,25.979 17.103,25.867 17.17,25.799L19.46,23.509C19.505,23.464 19.573,23.441 19.595,23.486Z" style="fill:rgb(255,108,55);fill-rule:nonzero;"/></g><g transform="matrix(1.28,0,0,1.28,-6.71998,-6.80985)"><path d="M17.439,26.63C17.103,26.63 16.856,26.361 16.856,26.024C16.856,25.867 16.923,25.709 17.035,25.597L19.326,23.307C19.46,23.194 19.64,23.194 19.775,23.307L21.684,25.215C21.818,25.328 21.818,25.53 21.684,25.664C21.639,25.709 21.594,25.732 21.526,25.754L17.574,26.608C17.529,26.608 17.484,26.63 17.439,26.63ZM19.528,23.733L17.327,25.934C17.282,25.979 17.26,26.046 17.305,26.113C17.327,26.181 17.394,26.204 17.462,26.181L21.167,25.373L19.528,23.733Z" style="fill:white;fill-rule:nonzero;"/></g><g transform="matrix(1.28,0,0,1.28,-6.71998,-6.80985)"><path d="M36.707,11.36C35.27,9.968 32.957,10.013 31.564,11.473C30.172,12.932 30.217,15.223 31.676,16.615C32.867,17.76 34.663,17.962 36.078,17.109L33.518,14.549L36.707,11.36Z" style="fill:rgb(255,108,55);fill-rule:nonzero;"/></g><g transform="matrix(1.28,0,0,1.28,-6.71998,-6.80985)"><path d="M34.192,17.85C32.058,17.85 30.329,16.121 30.329,13.988C30.329,11.854 32.058,10.125 34.192,10.125C35.18,10.125 36.145,10.507 36.864,11.203C36.909,11.248 36.931,11.293 36.931,11.36C36.931,11.428 36.909,11.472 36.864,11.517L33.832,14.549L36.213,16.929C36.303,17.019 36.303,17.154 36.213,17.244C36.19,17.266 36.19,17.266 36.168,17.289C35.584,17.648 34.888,17.85 34.192,17.85ZM34.192,10.597C32.305,10.597 30.778,12.124 30.801,14.01C30.801,15.896 32.328,17.423 34.214,17.401C34.731,17.401 35.247,17.289 35.719,17.042L33.361,14.706C33.316,14.661 33.293,14.616 33.293,14.549C33.293,14.482 33.316,14.437 33.361,14.392L36.37,11.383C35.764,10.866 35,10.597 34.192,10.597Z" style="fill:white;fill-rule:nonzero;"/></g><g transform="matrix(1.28,0,0,1.28,-6.71998,-6.80985)"><path d="M36.774,11.428L36.729,11.383L33.518,14.549L36.055,17.086C36.303,16.929 36.549,16.75 36.752,16.548C38.189,15.133 38.189,12.842 36.774,11.428Z" style="fill:rgb(255,108,55);fill-rule:nonzero;"/></g><g transform="matrix(1.28,0,0,1.28,-6.71998,-6.80985)"><path d="M36.078,17.333C36.011,17.333 35.966,17.311 35.921,17.266L33.361,14.706C33.316,14.661 33.293,14.616 33.293,14.549C33.293,14.481 33.316,14.437 33.361,14.392L36.549,11.203C36.639,11.113 36.774,11.113 36.864,11.203L36.931,11.248C38.436,12.752 38.436,15.178 36.954,16.705C36.729,16.929 36.482,17.131 36.213,17.288C36.145,17.311 36.1,17.333 36.078,17.333ZM33.832,14.549L36.1,16.817C36.28,16.705 36.46,16.547 36.594,16.413C37.874,15.133 37.942,13.044 36.707,11.697L33.832,14.549Z" style="fill:white;fill-rule:nonzero;"/></g><g transform="matrix(1.28,0,0,1.28,-6.71998,-6.80985)"><path d="M32.081,17.019C31.542,16.48 30.666,16.48 30.127,17.019L21.661,25.485L23.076,26.9L32.036,19.04C32.62,18.546 32.665,17.67 32.171,17.086C32.126,17.064 32.103,17.041 32.081,17.019Z" style="fill:rgb(255,108,55);fill-rule:nonzero;"/></g><g transform="matrix(1.28,0,0,1.28,-6.71998,-6.80985)"><path d="M23.054,27.124C22.986,27.124 22.941,27.102 22.896,27.057L21.482,25.642C21.392,25.552 21.392,25.418 21.482,25.328L29.947,16.862C30.576,16.233 31.587,16.233 32.215,16.862C32.844,17.491 32.844,18.501 32.215,19.13C32.193,19.152 32.171,19.175 32.148,19.197L23.188,27.057C23.166,27.102 23.121,27.124 23.054,27.124ZM21.976,25.485L23.076,26.585L31.879,18.86C32.373,18.456 32.418,17.715 32.013,17.221C31.609,16.727 30.868,16.682 30.374,17.086C30.352,17.109 30.329,17.131 30.284,17.154L21.976,25.485Z" style="fill:white;fill-rule:nonzero;"/></g><g transform="matrix(1.28,0,0,1.28,-6.71998,-6.80985)"><path d="M36.796,13.583C36.752,13.449 36.594,13.381 36.46,13.426C36.325,13.471 36.258,13.628 36.303,13.763C36.303,13.785 36.325,13.808 36.325,13.83C36.46,14.1 36.415,14.436 36.235,14.684C36.145,14.796 36.168,14.953 36.258,15.043C36.37,15.133 36.527,15.11 36.617,14.998C36.954,14.571 37.021,14.032 36.796,13.583Z" style="fill:white;fill-rule:nonzero;"/></g></g></g><g transform="matrix(1,0,0,1,281.25,112.5)"><g><path d="M48,10C48,4.481 43.519,0 38,0L10,0C4.481,0 0,4.481 0,10L0,38C0,43.519 4.481,48 10,48L38,48C43.519,48 48,43.519 48,38L48,10Z" style="fill:rgb(36,41,56);"/><g transform="matrix(0.96,0,0,0.96,0.96,0.963592)"><path d="M23.865,5.438C14.345,5.438 14.939,9.566 14.939,9.566L14.95,13.843L24.035,13.843L24.035,15.127L11.342,15.127C11.342,15.127 5.25,14.436 5.25,24.042C5.25,33.647 10.567,33.307 10.567,33.307L13.74,33.307L13.74,28.849C13.74,28.849 13.569,23.532 18.972,23.532L27.983,23.532C27.983,23.532 33.045,23.614 33.045,18.64L33.045,10.415C33.045,10.415 33.813,5.438 23.865,5.438ZM18.856,8.314C19.76,8.314 20.49,9.044 20.49,9.948C20.49,10.852 19.76,11.582 18.856,11.582C17.952,11.582 17.221,10.852 17.221,9.948C17.221,9.044 17.952,8.314 18.856,8.314Z" style="fill:rgb(55,116,166);fill-rule:nonzero;"/></g><g transform="matrix(0.96,0,0,0.96,0.96,0.963592)"><path d="M24.135,42.742C33.655,42.742 33.061,38.614 33.061,38.614L33.05,34.337L23.965,34.337L23.965,33.053L36.658,33.053C36.658,33.053 42.75,33.744 42.75,24.138C42.75,14.532 37.433,14.873 37.433,14.873L34.26,14.873L34.26,19.331C34.26,19.331 34.431,24.647 29.028,24.647L20.018,24.647C20.018,24.647 14.955,24.566 14.955,29.54L14.955,37.765C14.955,37.765 14.187,42.742 24.135,42.742ZM29.144,39.866C28.241,39.866 27.51,39.136 27.51,38.232C27.51,37.328 28.241,36.597 29.144,36.597C30.048,36.597 30.779,37.328 30.779,38.232C30.779,39.136 30.048,39.866 29.144,39.866Z" style="fill:rgb(255,210,66);fill-rule:nonzero;"/></g></g></g><g transform="matrix(1,0,0,1,0,168.75)"><g><path d="M48,10C48,4.481 43.519,0 38,0L10,0C4.481,0 0,4.481 0,10L0,38C0,43.519 4.481,48 10,48L38,48C43.519,48 48,43.519 48,38L48,10Z" style="fill:rgb(36,41,56);"/><g transform="matrix(0.974619,0,0,0.974619,0.750487,0.750503)"><path d="M16.984,5.438C16.789,5.444 16.58,5.513 16.341,5.693C15.758,5.477 15.192,5.403 14.687,5.841C13.906,5.744 13.652,5.945 13.46,6.179C13.288,6.175 12.177,6.01 11.667,6.738C10.386,6.593 9.981,7.46 10.44,8.268C10.178,8.657 9.907,9.04 10.519,9.78C10.303,10.192 10.437,10.639 10.947,11.18C10.812,11.759 11.076,12.167 11.551,12.486C11.462,13.278 12.309,13.74 12.562,13.904C12.659,14.365 12.862,14.801 13.83,15.042C13.989,15.731 14.571,15.849 15.134,15.994C13.273,17.031 11.676,18.395 11.687,21.742L11.414,22.208C9.28,23.452 7.359,27.449 10.362,30.698C10.559,31.716 10.887,32.446 11.18,33.255C11.619,36.513 14.478,38.038 15.232,38.219C16.337,39.025 17.514,39.79 19.107,40.326C20.608,41.81 22.235,42.376 23.87,42.375L23.942,42.375C25.578,42.376 27.205,41.81 28.706,40.326C30.299,39.791 31.475,39.025 32.581,38.219C33.335,38.038 36.194,36.513 36.632,33.254C36.925,32.446 37.254,31.716 37.45,30.698C40.453,27.449 38.533,23.451 36.398,22.207L36.125,21.741C36.136,18.395 34.54,17.03 32.678,15.993C33.241,15.849 33.823,15.73 33.983,15.042C34.95,14.801 35.153,14.365 35.25,13.903C35.503,13.739 36.351,13.278 36.262,12.485C36.736,12.167 37,11.758 36.866,11.179C37.376,10.638 37.51,10.191 37.293,9.779C37.905,9.04 37.634,8.656 37.373,8.268C37.831,7.46 37.427,6.593 36.145,6.738C35.636,6.01 34.524,6.175 34.353,6.178C34.16,5.944 33.906,5.744 33.125,5.841C32.62,5.403 32.054,5.477 31.471,5.693C30.778,5.169 30.32,5.589 29.796,5.748C28.958,5.485 28.766,5.845 28.354,5.991C27.439,5.806 27.161,6.209 26.723,6.635L26.213,6.625C24.833,7.404 24.148,8.99 23.906,9.806C23.662,8.99 22.979,7.404 21.599,6.625L21.089,6.635C20.65,6.209 20.372,5.806 19.458,5.991C19.046,5.845 18.854,5.485 18.015,5.748C17.672,5.644 17.356,5.427 16.984,5.438L16.984,5.438Z" style="fill:rgb(5,6,6);fill-rule:nonzero;"/></g><g transform="matrix(0.974619,0,0,0.974619,0.606756,0.750503)"><path d="M14.265,8.865C17.925,10.673 20.052,12.135 21.218,13.381C20.621,15.673 17.507,15.778 16.369,15.713C16.602,15.61 16.796,15.485 16.865,15.294C16.58,15.099 15.567,15.273 14.859,14.892C15.131,14.838 15.258,14.786 15.385,14.594C14.717,14.39 13.997,14.214 13.574,13.875C13.802,13.878 14.016,13.925 14.314,13.726C13.715,13.417 13.077,13.172 12.581,12.7C12.89,12.693 13.224,12.697 13.321,12.588C12.773,12.263 12.311,11.901 11.928,11.506C12.362,11.556 12.544,11.513 12.649,11.44C12.235,11.034 11.711,10.691 11.461,10.19C11.782,10.296 12.077,10.337 12.289,10.181C12.148,9.876 11.545,9.697 11.198,8.987C11.536,9.018 11.895,9.057 11.967,8.987C11.81,8.373 11.541,8.028 11.276,7.671C12,7.661 13.098,7.673 13.048,7.615L12.6,7.177C13.308,6.994 14.032,7.206 14.558,7.363C14.794,7.185 14.554,6.959 14.266,6.728C14.867,6.805 15.41,6.938 15.901,7.121C16.164,6.893 15.731,6.667 15.522,6.439C16.451,6.608 16.845,6.845 17.236,7.083C17.52,6.822 17.252,6.601 17.061,6.374C17.761,6.623 18.122,6.944 18.502,7.261C18.631,7.094 18.829,6.972 18.59,6.57C19.087,6.845 19.461,7.169 19.738,7.531C20.046,7.343 19.922,7.086 19.924,6.85C20.441,7.253 20.768,7.681 21.17,8.1C21.251,8.044 21.321,7.852 21.384,7.55C22.617,8.696 24.36,11.583 21.832,12.728C19.681,11.028 17.111,9.792 14.264,8.865L14.265,8.865ZM33.65,8.865C29.99,10.673 27.862,12.135 26.697,13.381C27.294,15.673 30.408,15.778 31.546,15.713C31.313,15.61 31.119,15.485 31.05,15.294C31.336,15.099 32.349,15.273 33.056,14.892C32.784,14.838 32.657,14.786 32.53,14.594C33.198,14.39 33.918,14.214 34.341,13.875C34.113,13.878 33.899,13.925 33.601,13.726C34.2,13.417 34.838,13.172 35.335,12.7C35.025,12.693 34.692,12.697 34.594,12.588C35.143,12.263 35.605,11.901 35.987,11.506C35.554,11.556 35.371,11.513 35.266,11.44C35.68,11.034 36.205,10.691 36.455,10.19C36.133,10.296 35.839,10.337 35.627,10.181C35.768,9.876 36.37,9.697 36.718,8.987C36.379,9.018 36.02,9.057 35.948,8.987C36.106,8.373 36.375,8.028 36.639,7.671C35.915,7.661 34.817,7.673 34.867,7.615L35.315,7.177C34.607,6.994 33.883,7.206 33.358,7.363C33.122,7.184 33.362,6.959 33.65,6.728C33.049,6.805 32.505,6.938 32.014,7.12C31.751,6.893 32.184,6.666 32.394,6.439C31.465,6.608 31.071,6.845 30.68,7.083C30.396,6.822 30.664,6.601 30.855,6.374C30.154,6.623 29.794,6.944 29.414,7.26C29.285,7.093 29.087,6.971 29.326,6.569C28.829,6.844 28.454,7.168 28.177,7.531C27.869,7.343 27.994,7.086 27.992,6.85C27.475,7.252 27.147,7.681 26.745,8.1C26.665,8.044 26.594,7.852 26.531,7.549C25.298,8.696 23.556,11.583 26.083,12.728C28.234,11.027 30.802,9.792 33.65,8.865L33.65,8.865" style="fill:rgb(99,197,77);fill-rule:nonzero;"/></g><g transform="matrix(0.974619,0,0,0.974619,0.750487,0.750503)"><path d="M28.384,32.208C28.396,34.347 26.444,36.09 24.023,36.101C21.602,36.113 19.629,34.388 19.616,32.249L19.616,32.208C19.603,30.068 21.555,28.325 23.976,28.314C26.398,28.303 28.371,30.027 28.384,32.167L28.384,32.208ZM21.548,21.143C23.365,22.283 23.692,24.868 22.28,26.916C20.867,28.964 18.25,29.7 16.433,28.56C14.617,27.42 14.289,24.835 15.702,22.787C17.114,20.738 19.732,20.003 21.548,21.143ZM26.451,20.936C24.634,22.077 24.307,24.661 25.72,26.71C27.132,28.757 29.75,29.494 31.566,28.353C33.383,27.213 33.71,24.628 32.297,22.58C30.885,20.533 28.267,19.796 26.451,20.937L26.451,20.936ZM12.582,23.019C14.543,22.515 13.244,30.793 11.649,30.114C9.893,28.761 9.328,24.8 12.582,23.019L12.582,23.019ZM35.246,22.916C33.284,22.413 34.583,30.69 36.179,30.011C37.935,28.658 38.5,24.697 35.246,22.916ZM28.668,16.74C32.053,16.193 34.869,18.119 34.755,21.635C34.644,22.983 27.421,16.941 28.668,16.74L28.668,16.74ZM19.317,16.637C15.932,16.089 13.116,18.016 13.23,21.532C13.341,22.88 20.564,16.837 19.317,16.637ZM23.98,15.817C21.96,15.767 20.021,17.254 20.016,18.115C20.011,19.163 21.614,20.236 23.994,20.264C26.424,20.28 27.975,19.405 27.983,18.323C27.992,17.098 25.772,15.798 23.98,15.817ZM24.136,37.304C25.897,37.231 28.26,37.848 28.265,38.666C28.294,39.461 26.122,41.258 24.019,41.223C21.842,41.313 19.706,39.514 19.734,38.891C19.702,37.976 22.386,37.263 24.136,37.304ZM17.618,32.452C18.872,33.9 19.443,36.443 18.397,37.192C17.407,37.764 15.003,37.529 13.294,35.177C12.142,33.203 12.291,31.195 13.1,30.604C14.31,29.898 16.179,30.852 17.618,32.452L17.618,32.452ZM30.242,31.993C28.886,33.516 28.13,36.293 29.12,37.187C30.066,37.882 32.606,37.785 34.483,35.29C35.845,33.615 35.389,30.817 34.61,30.074C33.454,29.217 31.795,30.313 30.242,31.993L30.242,31.993" style="fill:rgb(197,24,80);fill-rule:nonzero;"/></g></g></g><g transform="matrix(1,0,0,1,56.25,168.75)"><g><path d="M48,10C48,4.481 43.519,0 38,0L10,0C4.481,0 0,4.481 0,10L0,38C0,43.519 4.481,48 10,48L38,48C43.519,48 48,43.519 48,38L48,10Z" style="fill:rgb(36,41,56);"/><g transform="matrix(0.96,0,0,0.96,0.96,0.963526)"><path d="M24,27.553C25.932,27.553 27.498,25.987 27.498,24.055C27.498,22.124 25.932,20.557 24,20.557C22.068,20.557 20.502,22.124 20.502,24.055C20.502,25.987 22.068,27.553 24,27.553Z" style="fill:rgb(0,216,255);fill-rule:nonzero;"/></g><g transform="matrix(0.96,0,0,0.96,0.96,0.963526)"><path d="M24,16.943C28.697,16.943 33.06,17.617 36.35,18.75C40.313,20.114 42.75,22.182 42.75,24.055C42.75,26.007 40.167,28.204 35.911,29.615C32.693,30.681 28.459,31.237 24,31.237C19.429,31.237 15.101,30.715 11.847,29.603C7.73,28.196 5.25,25.97 5.25,24.055C5.25,22.198 7.577,20.145 11.485,18.783C14.787,17.632 19.257,16.943 24,16.943L24,16.943Z" style="fill:none;stroke:rgb(0,216,255);stroke-width:1.67px;"/></g><g transform="matrix(0.96,0,0,0.96,0.96,0.963526)"><path d="M17.809,20.52C20.155,16.451 22.919,13.008 25.543,10.724C28.705,7.973 31.715,6.895 33.337,7.83C35.027,8.805 35.641,12.141 34.736,16.532C34.053,19.852 32.419,23.798 30.191,27.661C27.908,31.62 25.293,35.109 22.704,37.372C19.429,40.235 16.262,41.271 14.603,40.315C12.994,39.388 12.378,36.346 13.15,32.28C13.803,28.845 15.44,24.628 17.808,20.52L17.809,20.52Z" style="fill:none;stroke:rgb(0,216,255);stroke-width:1.67px;"/></g><g transform="matrix(0.96,0,0,0.96,0.96,0.963526)"><path d="M17.815,27.671C15.462,23.607 13.86,19.493 13.191,16.078C12.386,11.965 12.955,8.819 14.576,7.881C16.265,6.903 19.461,8.037 22.814,11.014C25.349,13.265 27.952,16.651 30.186,20.509C32.476,24.465 34.192,28.473 34.86,31.846C35.705,36.114 35.021,39.375 33.364,40.334C31.756,41.265 28.814,40.28 25.677,37.58C23.027,35.299 20.191,31.775 17.815,27.671Z" style="fill:none;stroke:rgb(0,216,255);stroke-width:1.67px;"/></g></g></g><g transform="matrix(1,0,0,1,112.5,168.75)"><g><path d="M48,10C48,4.481 43.519,0 38,0L10,0C4.481,0 0,4.481 0,10L0,38C0,43.519 4.481,48 10,48L38,48C43.519,48 48,43.519 48,38L48,10Z" style="fill:rgb(36,41,56);"/><g transform="matrix(0.960001,0,0,0.960001,1.00999,1.03311)"><path d="M39.29,32.216C34.674,38.366 24.815,36.29 18.494,36.589C18.494,36.589 17.375,36.651 16.248,36.836C16.248,36.836 16.674,36.655 17.218,36.467C21.657,34.932 23.755,34.624 26.453,33.238C31.521,30.641 36.566,24.986 37.592,19.111C35.663,24.761 29.795,29.625 24.453,31.599C20.796,32.949 14.183,34.262 14.182,34.263C14.185,34.267 13.918,34.124 13.915,34.121C9.417,31.933 9.287,22.192 17.456,19.052C21.037,17.675 24.462,18.432 28.334,17.51C32.463,16.528 37.245,13.433 39.189,9.387C41.368,15.85 43.986,25.963 39.29,32.216ZM39.37,7.384C38.821,8.689 38.15,9.866 37.377,10.918C33.974,7.426 29.225,5.25 23.976,5.25C13.65,5.25 5.25,13.651 5.25,23.975C5.25,29.387 7.56,34.268 11.243,37.69L11.653,38.053C10.969,37.495 10.863,36.489 11.418,35.804C11.977,35.118 12.983,35.012 13.668,35.567C14.355,36.123 14.46,37.132 13.904,37.818C13.35,38.505 12.341,38.609 11.655,38.055L11.934,38.302C15.192,41.045 19.392,42.702 23.976,42.702C33.846,42.702 41.951,35.021 42.644,25.326C43.158,20.579 41.756,14.552 39.37,7.384Z" style="fill:rgb(95,184,50);fill-rule:nonzero;"/></g></g></g><g transform="matrix(1,0,0,1,168.75,168.75)"><g><path d="M48,10C48,4.481 43.519,0 38,0L10,0C4.481,0 0,4.481 0,10L0,38C0,43.519 4.481,48 10,48L38,48C43.519,48 48,43.519 48,38L48,10Z" style="fill:rgb(36,41,56);"/><g transform="matrix(0.96,0,0,0.96,0.958988,0.96)"><path d="M34.414,38.696L34.414,29.574L38.468,29.574L38.468,42.75L8.063,42.75L8.063,29.574L12.117,29.574L12.117,38.696L34.414,38.696Z" style="fill:rgb(188,187,187);fill-rule:nonzero;"/></g><g transform="matrix(0.96,0,0,0.96,0.958988,0.96)"><path d="M29.853,5.25L27.117,7.277L37.15,20.757L39.887,18.73L29.853,5.25ZM34.414,23.899L21.542,13.155L23.671,10.622L36.542,21.365L34.414,23.899ZM17.285,20.655L32.488,27.75L33.907,24.709L18.704,17.615L17.285,20.655ZM31.475,31.591L32.164,28.601L15.846,25.206L15.157,28.561L31.475,31.591ZM31.373,35.655L15.157,35.655L15.157,32.615L31.373,32.615L31.373,35.655Z" style="fill:rgb(244,128,36);fill-rule:nonzero;"/></g></g></g><g transform="matrix(1,0,0,1,225,168.75)"><g><path d="M48,10C48,4.481 43.519,0 38,0L10,0C4.481,0 0,4.481 0,10L0,38C0,43.519 4.481,48 10,48L38,48C43.519,48 48,43.519 48,38L48,10Z" style="fill:rgb(36,41,56);"/><g transform="matrix(0.987743,0,0,0.987743,0.29659,0.103328)"><path d="M6.322,18.789C6.322,18.789 5.434,18.149 6.499,17.295L8.981,15.075C8.981,15.075 9.691,14.328 10.442,14.979L33.345,32.319L33.345,40.634C33.345,40.634 33.334,41.94 31.658,41.795L6.322,18.789Z" style="fill:rgb(36,137,202);fill-rule:nonzero;"/></g><g transform="matrix(0.987743,0,0,0.987743,0.29659,0.103328)"><path d="M12.225,24.148L6.322,29.515C6.322,29.515 5.715,29.967 6.322,30.773L9.062,33.266C9.062,33.266 9.713,33.965 10.675,33.17L16.933,28.424L12.225,24.148Z" style="fill:rgb(16,112,179);fill-rule:nonzero;"/></g><g transform="matrix(0.987743,0,0,0.987743,0.29659,0.103328)"><path d="M22.589,24.193L33.415,15.926L33.345,7.656C33.345,7.656 32.883,5.851 31.34,6.79L16.934,19.902L22.589,24.193Z" style="fill:rgb(8,119,185);fill-rule:nonzero;"/></g><g transform="matrix(0.987743,0,0,0.987743,0.29659,0.103328)"><path d="M31.658,41.807C32.287,42.45 33.049,42.239 33.049,42.239L41.486,38.082C42.566,37.346 42.414,36.432 42.414,36.432L42.414,11.606C42.414,10.515 41.297,10.138 41.297,10.138L33.985,6.613C32.387,5.625 31.34,6.79 31.34,6.79C31.34,6.79 32.687,5.821 33.345,7.656L33.345,40.482C33.345,40.708 33.297,40.93 33.201,41.13C33.008,41.518 32.59,41.88 31.588,41.729L31.658,41.807Z" style="fill:rgb(60,153,212);fill-rule:nonzero;"/></g></g></g><g transform="matrix(1,0,0,1,281.25,168.75)"><g><path d="M48,10C48,4.481 43.519,0 38,0L10,0C4.481,0 0,4.481 0,10L0,38C0,43.519 4.481,48 10,48L38,48C43.519,48 48,43.519 48,38L48,10Z" style="fill:rgb(36,41,56);"/><g transform="matrix(0.96,0,0,0.96,0.96,0.96063)"><path d="M7.915,23.999C7.915,30.365 11.615,35.867 16.98,38.475L9.308,17.453C8.415,19.453 7.915,21.667 7.915,23.999Z" style="fill:rgb(0,115,170);fill-rule:nonzero;"/></g><g transform="matrix(0.96,0,0,0.96,0.96,0.96063)"><path d="M34.858,23.187C34.858,21.2 34.144,19.823 33.531,18.751C32.716,17.426 31.952,16.304 31.952,14.979C31.952,13.501 33.073,12.125 34.653,12.125C34.724,12.125 34.792,12.133 34.861,12.137C31.999,9.516 28.187,7.915 23.999,7.915C18.38,7.915 13.437,10.798 10.561,15.165C10.938,15.176 11.294,15.184 11.596,15.184C13.278,15.184 15.882,14.98 15.882,14.98C16.749,14.929 16.852,16.202 15.985,16.305C15.985,16.305 15.114,16.408 14.145,16.458L20.002,33.881L23.522,23.324L21.016,16.458C20.15,16.407 19.329,16.304 19.329,16.304C18.462,16.254 18.564,14.928 19.431,14.979C19.431,14.979 22.087,15.184 23.667,15.184C25.35,15.184 27.954,14.979 27.954,14.979C28.822,14.928 28.924,16.202 28.057,16.304C28.057,16.304 27.184,16.407 26.216,16.458L32.029,33.748L33.633,28.387C34.329,26.162 34.858,24.564 34.858,23.187Z" style="fill:rgb(0,115,170);fill-rule:nonzero;"/></g><g transform="matrix(0.96,0,0,0.96,0.96,0.96063)"><path d="M24.282,25.406L19.456,39.429C20.897,39.853 22.421,40.084 24,40.084C25.873,40.084 27.669,39.761 29.341,39.173C29.298,39.104 29.258,39.031 29.226,38.951L24.282,25.406Z" style="fill:rgb(0,115,170);fill-rule:nonzero;"/></g><g transform="matrix(0.96,0,0,0.96,0.96,0.96063)"><path d="M38.113,16.282C38.182,16.794 38.221,17.344 38.221,17.936C38.221,19.568 37.916,21.403 36.998,23.697L32.085,37.902C36.867,35.114 40.083,29.933 40.083,23.999C40.084,21.203 39.369,18.573 38.113,16.282Z" style="fill:rgb(0,115,170);fill-rule:nonzero;"/></g><g transform="matrix(0.96,0,0,0.96,0.96,0.96063)"><path d="M24,5.25C13.661,5.25 5.25,13.661 5.25,23.999C5.25,34.338 13.661,42.749 24,42.749C34.337,42.749 42.75,34.338 42.75,23.999C42.75,13.661 34.337,5.25 24,5.25ZM24,41.889C14.135,41.889 6.11,33.864 6.11,23.999C6.11,14.135 14.135,6.11 24,6.11C33.863,6.11 41.888,14.135 41.888,23.999C41.888,33.864 33.863,41.889 24,41.889Z" style="fill:rgb(0,115,170);fill-rule:nonzero;"/></g></g></g><defs><linearGradient id="_Linear1" x1="0" y1="0" x2="1" y2="0" gradientUnits="userSpaceOnUse" gradientTransform="matrix(19.4117,0,0,25.5294,14.25,24.0147)"><stop offset="0" style="stop-color:rgb(144,19,254);stop-opacity:1"/><stop offset="1" style="stop-color:rgb(107,17,244);stop-opacity:1"/></linearGradient><linearGradient id="_Linear2" x1="0" y1="0" x2="1" y2="0" gradientUnits="userSpaceOnUse" gradientTransform="matrix(1.54836e-15,-25.2866,25.2866,1.54836e-15,25.9626,43.0162)"><stop offset="0" style="stop-color:rgb(71,55,136);stop-opacity:1"/><stop offset="0.3" style="stop-color:rgb(71,55,136);stop-opacity:1"/><stop offset="0.87" style="stop-color:rgb(44,34,85);stop-opacity:1"/><stop offset="1" style="stop-color:rgb(44,34,85);stop-opacity:1"/></linearGradient><linearGradient id="_Linear3" x1="0" y1="0" x2="1" y2="0" gradientUnits="userSpaceOnUse" gradientTransform="matrix(1.54836e-15,-25.2866,25.2866,1.54836e-15,25.9627,43.0166)"><stop offset="0" style="stop-color:rgb(71,55,136);stop-opacity:1"/><stop offset="0.3" style="stop-color:rgb(71,55,136);stop-opacity:1"/><stop offset="0.87" style="stop-color:rgb(44,34,85);stop-opacity:1"/><stop offset="1" style="stop-color:rgb(44,34,85);stop-opacity:1"/></linearGradient><linearGradient id="_Linear4" x1="0" y1="0" x2="1" y2="0" gradientUnits="userSpaceOnUse" gradientTransform="matrix(1.54826e-15,-25.2849,25.2849,1.54826e-15,25.9629,43.0157)"><stop offset="0" style="stop-color:rgb(71,55,136);stop-opacity:1"/><stop offset="0.3" style="stop-color:rgb(71,55,136);stop-opacity:1"/><stop offset="0.86" style="stop-color:rgb(44,34,85);stop-opacity:1"/><stop offset="1" style="stop-color:rgb(44,34,85);stop-opacity:1"/></linearGradient><linearGradient id="_Linear5" x1="0" y1="0" x2="1" y2="0" gradientUnits="userSpaceOnUse" gradientTransform="matrix(34.0549,18.0744,-18.0744,34.0549,9.35962,11.6349)"><stop offset="0" style="stop-color:white;stop-opacity:0.1"/><stop offset="1" style="stop-color:white;stop-opacity:0"/></linearGradient><linearGradient id="_Linear6" x1="0" y1="0" x2="1" y2="0" gradientUnits="userSpaceOnUse" gradientTransform="matrix(34.0549,18.0744,-18.0744,34.0549,9.35962,11.6349)"><stop offset="0" style="stop-color:white;stop-opacity:0.1"/><stop offset="1" style="stop-color:white;stop-opacity:0"/></linearGradient><linearGradient id="_Linear7" x1="0" y1="0" x2="1" y2="0" gradientUnits="userSpaceOnUse" gradientTransform="matrix(17.4255,0,0,17.4255,5.673,26.7264)"><stop offset="0" style="stop-color:rgb(249,122,18);stop-opacity:1"/><stop offset="0.26" style="stop-color:rgb(249,122,18);stop-opacity:1"/><stop offset="0.46" style="stop-color:rgb(176,123,88);stop-opacity:1"/><stop offset="0.72" style="stop-color:rgb(87,123,174);stop-opacity:1"/><stop offset="0.91" style="stop-color:rgb(30,124,229);stop-opacity:1"/><stop offset="1" style="stop-color:rgb(8,124,250);stop-opacity:1"/></linearGradient><linearGradient id="_Linear8" x1="0" y1="0" x2="1" y2="0" gradientUnits="userSpaceOnUse" gradientTransform="matrix(28.7447,15.9052,-15.9052,28.7447,19.0539,18.5786)"><stop offset="0" style="stop-color:rgb(249,122,18);stop-opacity:1"/><stop offset="0.07" style="stop-color:rgb(203,122,62);stop-opacity:1"/><stop offset="0.15" style="stop-color:rgb(158,123,106);stop-opacity:1"/><stop offset="0.24" style="stop-color:rgb(117,123,145);stop-opacity:1"/><stop offset="0.33" style="stop-color:rgb(83,123,177);stop-opacity:1"/><stop offset="0.43" style="stop-color:rgb(56,124,204);stop-opacity:1"/><stop offset="0.54" style="stop-color:rgb(35,124,224);stop-opacity:1"/><stop offset="0.66" style="stop-color:rgb(20,124,239);stop-opacity:1"/><stop offset="0.79" style="stop-color:rgb(11,124,247);stop-opacity:1"/><stop offset="1" style="stop-color:rgb(8,124,250);stop-opacity:1"/></linearGradient><linearGradient id="_Linear9" x1="0" y1="0" x2="1" y2="0" gradientUnits="userSpaceOnUse" gradientTransform="matrix(-8.00231,-23.9113,23.9113,-8.00231,39.1221,28.2403)"><stop offset="0" style="stop-color:rgb(254,49,93);stop-opacity:1"/><stop offset="0.08" style="stop-color:rgb(203,65,126);stop-opacity:1"/><stop offset="0.16" style="stop-color:rgb(158,78,155);stop-opacity:1"/><stop offset="0.25" style="stop-color:rgb(117,91,180);stop-opacity:1"/><stop offset="0.34" style="stop-color:rgb(83,101,202);stop-opacity:1"/><stop offset="0.44" style="stop-color:rgb(56,109,219);stop-opacity:1"/><stop offset="0.54" style="stop-color:rgb(35,116,233);stop-opacity:1"/><stop offset="0.66" style="stop-color:rgb(20,120,243);stop-opacity:1"/><stop offset="0.79" style="stop-color:rgb(11,123,248);stop-opacity:1"/><stop offset="1" style="stop-color:rgb(8,124,250);stop-opacity:1"/></linearGradient><linearGradient id="_Linear10" x1="0" y1="0" x2="1" y2="0" gradientUnits="userSpaceOnUse" gradientTransform="matrix(24.0017,39.7001,-39.7001,24.0017,10.9931,14.0749)"><stop offset="0" style="stop-color:rgb(254,49,93);stop-opacity:1"/><stop offset="0.04" style="stop-color:rgb(246,52,98);stop-opacity:1"/><stop offset="0.1" style="stop-color:rgb(223,58,113);stop-opacity:1"/><stop offset="0.17" style="stop-color:rgb(194,67,131);stop-opacity:1"/><stop offset="0.29" style="stop-color:rgb(173,74,145);stop-opacity:1"/><stop offset="0.55" style="stop-color:rgb(117,91,180);stop-opacity:1"/><stop offset="0.92" style="stop-color:rgb(29,118,237);stop-opacity:1"/><stop offset="1" style="stop-color:rgb(8,124,250);stop-opacity:1"/></linearGradient></defs></svg>